<svg xmlns="http://www.w3.org/2000/svg" viewBox="0 0 80 80"><title>SportsBet-icon-private-key-dark</title><path d="M53.16,19.41a7.14,7.14,0,0,0-10.08,0L21.93,40.58a1.75,1.75,0,0,0,0,2.5l2.47,2.48L17.86,52a1.78,1.78,0,0,0-.53,1.26,1.75,1.75,0,0,0,.53,1.26l7.7,7.61a1.76,1.76,0,0,0,1.25.52,1.8,1.8,0,0,0,1.25-.52l6.46-6.46,2.38,2.38a1.81,1.81,0,0,0,1.26.52,1.74,1.74,0,0,0,1.25-.53l14.87-15a1.77,1.77,0,0,0-2.52-2.5L38.15,54.31l-2.51-2.52,3.86-3.86a2.74,2.74,0,0,0,.5,0,3.1,3.1,0,1,0-3.1-3.1,2.81,2.81,0,0,0,.06.59l-3.82,3.83-2.65-2.64,7.76-7.71h8a1.79,1.79,0,0,0,1.27-.53L50.83,35a2.91,2.91,0,0,0,.6.06,3.1,3.1,0,1,0-3.1-3.1,2.63,2.63,0,0,0,0,.49l-2.91,3H37.52a1.8,1.8,0,0,0-1.24.51L28,44.14l-2.31-2.31L45.59,21.92a3.59,3.59,0,0,1,5.07,0l7.43,7.43a3.53,3.53,0,0,1,0,5,1.77,1.77,0,0,0,2.5,2.5,7.08,7.08,0,0,0,0-10ZM26.91,48.07h0L32,53.18,26.8,58.4l-5.18-5.12ZM40,0A40,40,0,1,0,80,40,40,40,0,0,0,40,0Zm0,77.5A37.5,37.5,0,1,1,77.5,40,37.54,37.54,0,0,1,40,77.5Z" style="fill:#222;fill-rule:evenodd"/></svg>