<svg xmlns="http://www.w3.org/2000/svg" viewBox="0 0 30 30"><title>icon-mosaics</title><path d="M23.89,11a.52.52,0,0,0-.24.05l-7.87,3.4a.58.58,0,0,0-.36.54l0,8.63a.6.6,0,0,0,.6.6,1.06,1.06,0,0,0,.23-.05l7.87-3.4a.6.6,0,0,0,.36-.55l0-8.63A.59.59,0,0,0,23.89,11ZM16.33,23.2l0-8,7.28-3.14,0,8ZM14.57,15l0,8.64a.59.59,0,0,1-.82.54L5.88,20.84a.58.58,0,0,1-.36-.54l0-8.64a.59.59,0,0,1,.83-.54l7.88,3.36A.59.59,0,0,1,14.57,15ZM23.48,9,15.18,5.3a.6.6,0,0,0-.48,0L6.42,9a.59.59,0,0,0,0,1.08l8.3,3.64a.6.6,0,0,0,.48,0L23.48,10A.59.59,0,0,0,23.48,9ZM15,12.85,7.39,9.52l7.55-3.36,7.57,3.33ZM15,0A15,15,0,1,0,30,15,15,15,0,0,0,15,0Zm0,29.06A14.06,14.06,0,1,1,29.06,15,14.08,14.08,0,0,1,15,29.06Z" style="fill:#fff"/></svg>