<svg xmlns="http://www.w3.org/2000/svg" viewBox="0 0 220 80"><title>logo-dex-blanco</title><path d="M129.47,40.18a7.88,7.88,0,0,0-6.36-5.53,27,27,0,0,0-4-.52q-1.93-.09-8.17-.09H87.45V66.55h23.48c3.66,0,6.28,0,7.89-.15a31,31,0,0,0,4.52-.63,7.65,7.65,0,0,0,6-5.29,18.16,18.16,0,0,0,.85-4.08q.22-2.24.23-6.59c0-2.66-.07-4.64-.19-6A18.31,18.31,0,0,0,129.47,40.18ZM120.3,55a3.94,3.94,0,0,1-1.15,2.19,5,5,0,0,1-2.53.87,44.48,44.48,0,0,1-5.62.25H97.21V42.16h13.7a46.26,46.26,0,0,1,6.09.25,3.93,3.93,0,0,1,2.34,1.13,4.79,4.79,0,0,1,1,2.33,26.77,26.77,0,0,1,.29,4.55A22.85,22.85,0,0,1,120.3,55Zm22.29,3.79H169v7.81H132.83V34h36v7.64H142.59v4.69h24.92v7.15H142.59ZM220,66.55H206.06L195.42,54.86,184.84,66.55H170.57L187.2,50.11,171.83,34h13.56l10,11.41L205.52,34h13.72L203.59,50.11Z" style="fill:#fff"/><path d="M19.69,69.75A36,36,0,0,1,55.36,7.41V3.06a40,40,0,0,0-35.67,71.4Z" style="fill:#fff"/><path d="M60.81,5.83v4.78a36,36,0,0,1-35.67,62.2v4.33A40,40,0,0,0,60.81,5.83Z" style="fill:#fff"/><path d="M87.45,16.34H93.6a4.74,4.74,0,0,1,4.83,5.09c0,3-2,5.14-4.83,5.14H91.07v4.59H87.45Zm5.4,7.13a1.81,1.81,0,0,0,1.89-2,1.75,1.75,0,0,0-1.82-2H91.07v4Z" style="fill:#fff"/><path d="M100.06,20.33h3.4v2.43a3.64,3.64,0,0,1,3.35-2.61,2.71,2.71,0,0,1,.41,0v3.47a3.45,3.45,0,0,0-.72-.06c-2,0-2.9,1.25-2.9,3.17v4.09h-3.54Z" style="fill:#fff"/><path d="M114.39,20.09c3.33,0,6,2.22,6,5.54s-2.66,5.47-6,5.47-6-2.18-6-5.47,2.66-5.54,6-5.54m0,8.07a2.38,2.38,0,0,0,2.39-2.53,2.4,2.4,0,1,0-4.78,0,2.38,2.38,0,0,0,2.39,2.53" style="fill:#fff"/><path d="M163.64,24.3H164v-.19c0-.88-.72-1.16-1.49-1.16a5.53,5.53,0,0,0-2.91,1l-1.22-2.49a8.07,8.07,0,0,1,4.45-1.37c2.91,0,4.7,1.61,4.7,4.29v6.48h-3.23V29.57a3.85,3.85,0,0,1-3.12,1.53,3.22,3.22,0,0,1-3.44-3.2c0-2.83,3.36-3.6,5.95-3.6m-1.45,4.17a1.93,1.93,0,0,0,1.8-1.86v-.29h-.33c-1.08,0-2.47.29-2.47,1.25a.9.9,0,0,0,1,.9" style="fill:#fff"/><polygon points="183.53 16.34 182.59 16.34 178.36 22.79 178.84 23.52 183.19 16.86 183.53 16.34" style="fill:#ee6723"/><polygon points="181.5 16.34 177.82 21.95 178.24 22.59 182.33 16.34 181.5 16.34" style="fill:#f1a81f"/><polygon points="180.44 16.34 177.29 21.14 177.71 21.77 181.26 16.34 180.44 16.34" style="fill:#1bb2a9"/><polygon points="179.22 16.34 177.64 18.74 176.69 20.2 177.16 20.94 180.17 16.34 179.22 16.34" style="fill:#7ab4e2"/><polygon points="178.36 22.79 178.84 23.52 179.86 21.95 179.39 21.22 178.36 22.79" style="fill:#cd4f28"/><polygon points="178.24 22.59 179.26 21.03 178.85 20.39 177.82 21.95 178.24 22.59" style="fill:#c4852b"/><polygon points="177.71 21.77 178.73 20.21 178.32 19.57 177.29 21.14 177.71 21.77" style="fill:#009f8f"/><polygon points="176.69 20.2 177.16 20.94 178.19 19.37 177.71 18.63 177.16 19.48 176.69 20.2" style="fill:#478dbe"/><polygon points="174.2 16.36 169.73 16.36 174.44 23.64 169.53 31.16 173.9 31.16 176.61 26.99 179.3 31.16 183.77 31.16 178.85 23.54 176.68 20.19 174.2 16.36" style="fill:#fff"/><rect x="133.78" y="20.33" width="3.54" height="10.53" style="fill:#fff"/><rect x="133.82" y="16.24" width="3.46" height="2.76" style="fill:#fff"/><path d="M139.77,20.44h3.54v1.38a3.72,3.72,0,0,1,3-1.6,3.1,3.1,0,0,1,2.91,1.64,4.24,4.24,0,0,1,3.38-1.64c2.14,0,3.45,1.34,3.45,3.69V31h-3.55V25.05c0-1.1-.54-1.68-1.38-1.68s-1.45.58-1.45,1.68V31h-3.55V25.05c0-1.1-.54-1.68-1.38-1.68s-1.44.58-1.44,1.68V31h-3.54Z" style="fill:#fff"/><polygon points="131.82 30.85 128.22 25.51 131.74 20.34 127.84 20.34 126.28 22.63 124.73 20.34 120.74 20.34 124.28 25.57 120.68 30.85 124.57 30.85 126.22 28.44 127.86 30.85 131.82 30.85" style="fill:#fff"/><path d="M21.18,64.14h.49v2.34a32.32,32.32,0,0,1-8.18-8.19l4.71-2.52v5.38A3,3,0,0,0,21.18,64.14ZM66.6,21.84,62.29,23V45.59a3,3,0,0,1-3,3H56.86a3,3,0,0,1-3-3V27.86L50.4,31v14.6a3,3,0,0,1-3,3H45a3,3,0,0,1-3-3V40.77l-3.47,4.92V60.45a3,3,0,0,1-3,3H33.07a3,3,0,0,1-3-3V52.32l-3.47.54v8.29a3,3,0,0,1-3,3h-.49v3.3A32.2,32.2,0,0,0,66.6,21.84Z" style="fill:#8bc53f"/><path d="M46.19,34.8,50.4,31V24.31a3,3,0,0,0-3-3h-.49V11.11H45.45V21.32H45a3,3,0,0,0-3,3V40.77Z" style="fill:#1ba6df"/><path d="M58.08,24.05,62.29,23V19.84a3,3,0,0,0-3-3h-.48V0H57.34V16.86h-.48a3,3,0,0,0-3,3v8Z" style="fill:#1ba6df"/><path d="M34.3,51.66l4.21-6v-11a3,3,0,0,0-3-3H35V21.52H33.56V31.73h-.49a3,3,0,0,0-3,3V52.32Z" style="fill:#1ba6df"/><path d="M21.67,66.49V80h1.48V67.46C22.65,67.15,22.16,66.82,21.67,66.49Z" style="fill:#1ba6df"/><path d="M22.41,53.52l4.21-.66V40.37a3,3,0,0,0-3-3H21.18a3,3,0,0,0-3,3v15.4Z" style="fill:#1ba6df"/></svg>