<svg xmlns="http://www.w3.org/2000/svg" viewBox="0 0 30 30"><title>icon-and</title><path d="M11.37,24.89a5.47,5.47,0,0,1-3.42-1,3.28,3.28,0,0,1-1.33-2.73,3.71,3.71,0,0,1,.69-2.22A8.49,8.49,0,0,1,9.2,17.09l6.85,6.58A9.13,9.13,0,0,1,11.37,24.89ZM10.36,11a6,6,0,0,1-2-3.87,2.2,2.2,0,0,1,.79-1.82,3.37,3.37,0,0,1,2.18-.64,2.93,2.93,0,0,1,1.92.61A2.06,2.06,0,0,1,14,7a3,3,0,0,1-.95,2.16A12.22,12.22,0,0,1,10.36,11Zm.58,19a15.59,15.59,0,0,0,8.91-2.65l2.37,2.25H30l-6.21-5.85a23.84,23.84,0,0,0,2.95-4.54,27.5,27.5,0,0,0,2-5.26H22.22a23.8,23.8,0,0,1-2.54,6l-5.86-5.53a14,14,0,0,0,4.61-3.74,7.29,7.29,0,0,0,1.42-4.34,5.49,5.49,0,0,0-2.3-4.62A10,10,0,0,0,11.41,0,10.26,10.26,0,0,0,5,1.86a5.86,5.86,0,0,0-2.4,4.89,8.24,8.24,0,0,0,.7,3.42,13,13,0,0,0,2.25,3.28,11.69,11.69,0,0,0-4.28,3.61A8.38,8.38,0,0,0,0,21.72a7.17,7.17,0,0,0,3,6A12.93,12.93,0,0,0,10.94,30Z" style="fill:#ccc"/></svg>