<svg xmlns="http://www.w3.org/2000/svg" viewBox="0 0 30 26"><title>btn-account</title><path d="M15.26,0A14.86,14.86,0,0,0,0,14.45,14.56,14.56,0,0,0,5.35,26a3.94,3.94,0,0,1,.71-.5l4.48-2.39a1.81,1.81,0,0,0,1-1.57v-1.8A9.64,9.64,0,0,1,9.67,16,1.49,1.49,0,0,1,9,14.77v-2a1.48,1.48,0,0,1,.5-1.09V8.87S8.88,4.44,15,4.44s5.52,4.43,5.52,4.43v2.84A1.48,1.48,0,0,1,21,12.8v2A1.47,1.47,0,0,1,20,16.17a10.5,10.5,0,0,1-1.49,2.95c-.16.22-.32.42-.45.57v1.84a1.78,1.78,0,0,0,1,1.6l4.79,2.35a3.86,3.86,0,0,1,.79.52A14.57,14.57,0,0,0,30,15,14.85,14.85,0,0,0,15.26,0Z"/></svg>