<svg xmlns="http://www.w3.org/2000/svg" viewBox="0 0 30 30"><title>icon-proximax</title><path d="M15,0A15,15,0,1,0,30,15,15,15,0,0,0,15,0Zm0,29.06A14.06,14.06,0,1,1,29.06,15,14.08,14.08,0,0,1,15,29.06Zm.42-20.8A7.16,7.16,0,0,0,13.79,7c.4,0,.81,0,1.21,0a18.45,18.45,0,0,1,7.83,1.78,11,11,0,0,0-5.19.31,2.7,2.7,0,0,1-1,.2C16.27,9.22,15.7,8.55,15.42,8.26Zm7.76,1.31h.11a16.7,16.7,0,0,1-2.73,9.14c-.21-.91-.48-1.81-.76-2.68-.14-.45-.3-.89-.46-1.34s-.33-.87-.5-1.3c-.79-1.84-.71-1.85.73-2.68A8.64,8.64,0,0,1,23.18,9.57Zm-4.68,7.5c.36.69.86,1.68,1.29,2.73a16.72,16.72,0,0,1-4.55,4.06L15,24l-.24-.14A16.82,16.82,0,0,1,8.47,17c.93-.73,2-1.43,2.74-1.91a32.49,32.49,0,0,1,3.13-1.71,3.58,3.58,0,0,1,1.1-.4.9.9,0,0,1,.34,0c.34.15.92,1.08.92,1.08h0c.1.15.19.31.3.45s.22.34.32.5.3.5.45.75C18,16.23,18.28,16.65,18.5,17.07Zm-10.45-1A16.58,16.58,0,0,1,6.71,9.29V9L7,8.88a18.79,18.79,0,0,1,5.09-1.63l.25.27.47.61a6.07,6.07,0,0,1,.52.73,14.89,14.89,0,0,1,.82,1.36.79.79,0,0,1,.06.36.51.51,0,0,1-.18.25,4.19,4.19,0,0,1-.41.3c-.67.49-1.31,1-2,1.53s-1.45,1.26-2.12,1.91C9.05,15,8.53,15.55,8.05,16.11Z" style="fill:#2fa4d0;fill-rule:evenodd"/></svg>